<?xml version="1.0" encoding="iso-8859-1"?>
<!-- Generator: Adobe Illustrator 18.0.0, SVG Export Plug-In . SVG Version: 6.00 Build 0)  -->
<!DOCTYPE svg PUBLIC "-//W3C//DTD SVG 1.1//EN" "http://www.w3.org/Graphics/SVG/1.1/DTD/svg11.dtd">
<svg version="1.1" id="Capa_1" xmlns="http://www.w3.org/2000/svg" xmlns:xlink="http://www.w3.org/1999/xlink" x="0px" y="0px"
	 viewBox="0 0 418.053 418.053" style="enable-background:new 0 0 418.053 418.053;" xml:space="preserve">
<path d="M417.33,69.799l-16.152-34.101c-0.799-1.687-2.197-3.014-3.923-3.725L320.977,0.565c-2.171-0.894-4.635-0.72-6.658,0.471
	l-33.958,19.976C181.164,79.362,79.364,181.163,21.011,280.36L1.036,314.318c-1.19,2.023-1.364,4.488-0.471,6.658l31.41,76.278
	c0.71,1.726,2.038,3.124,3.724,3.922l34.101,16.153c1.032,0.489,2.126,0.723,3.207,0.723c2.441,0,4.813-1.194,6.244-3.341
	l68.201-102.302c1.726-2.588,1.675-5.972-0.128-8.506l-36.951-51.968c30.575-51.57,89.994-110.99,141.563-141.564l51.969,36.952
	c2.533,1.802,5.92,1.854,8.506,0.128L414.712,79.25C417.809,77.185,418.923,73.162,417.33,69.799z M70.365,401l-20.469-9.695
	l67.647-103.398l14.563,20.481L70.365,401z M248.647,94.939C192.742,126.66,126.662,192.74,94.939,248.647
	c-1.438,2.534-1.277,5.672,0.411,8.047l12.857,18.082L40.425,378.381l-24.57-59.67l18.086-30.746
	c27.906-47.441,66.664-96.524,112.083-141.943c45.418-45.418,94.501-84.176,141.942-112.083l30.746-18.086l59.67,24.57
	l-103.605,67.783L256.694,95.35C254.322,93.661,251.182,93.5,248.647,94.939z M308.387,132.106l-20.48-14.563l103.398-67.647
	L401,70.363L308.387,132.106z"/>
<g>
</g>
<g>
</g>
<g>
</g>
<g>
</g>
<g>
</g>
<g>
</g>
<g>
</g>
<g>
</g>
<g>
</g>
<g>
</g>
<g>
</g>
<g>
</g>
<g>
</g>
<g>
</g>
<g>
</g>
</svg>
